# xmcd CD database file
#
# Track frame offsets:
#	150
#	18720
#	33326
#	48538
#	63548
#	77062
#	91067
#	103823
#	116117
#	130307
#	143133
#	158009
#	171735
#	187040
#	203408
#	217002
#	231410
#	241920
#
# Disc length: 3464 seconds
#
# Revision: 0
# Processed by: cddbd v1.5.2PL0 Copyright (c) Steve Scherf et al.
# Submitted via: jetAudio 7
#
DISCID=080d8612
DTITLE=Don Williams - Love Stories
DYEAR=1900
DGENRE=Country
TTITLE0=I Believe In You
TTITLE1=Listen To The Radio
TTITLE2=Good To See You
TTITLE3=Love's Endless War
TTITLE4=Yellow Moon
TTITLE5=Fool, Fool Heart
TTITLE6=Falling Again
TTITLE7=Years From Now
TTITLE8=I'm Still Looking For You
TTITLE9=The Story Of My Life
TTITLE10=You Got To Me
TTITLE11=Stay Young
TTITLE12=Now And Then
TTITLE13=Love Is On A Roll
TTITLE14=Miracles
TTITLE15=Ain't It Amazing
TTITLE16=Especially You
TTITLE17=Only Love
EXTD=
EXTT0=
EXTT1=
EXTT2=
EXTT3=
EXTT4=
EXTT5=
EXTT6=
EXTT7=
EXTT8=
EXTT9=
EXTT10=
EXTT11=
EXTT12=
EXTT13=
EXTT14=
EXTT15=
EXTT16=
EXTT17=
PLAYORDER=
